<svg width="40" height="40" viewBox="0 0 40 40" xmlns="http://www.w3.org/2000/svg">
  <defs>
    <!-- Gradient definitions -->
    <linearGradient id="iconPrimaryGradient" x1="0%" y1="0%" x2="100%" y2="100%">
      <stop offset="0%" style="stop-color:#2563eb;stop-opacity:1" />
      <stop offset="100%" style="stop-color:#1d4ed8;stop-opacity:1" />
    </linearGradient>
    <linearGradient id="iconAccentGradient" x1="0%" y1="0%" x2="100%" y2="100%">
      <stop offset="0%" style="stop-color:#f59e0b;stop-opacity:1" />
      <stop offset="100%" style="stop-color:#d97706;stop-opacity:1" />
    </linearGradient>
  </defs>
  
  <!-- Background circle -->
  <circle cx="20" cy="20" r="18" fill="url(#iconPrimaryGradient)" stroke="#1e40af" stroke-width="1"/>
  
  <!-- Shopping bag with gallery elements -->
  <g transform="translate(8, 8)">
    <!-- Shopping bag base -->
    <path d="M6 8h16v14c0 1.5-1.2 2.7-2.7 2.7H8.7C7.2 24.7 6 23.5 6 22V8z" 
          fill="white" 
          stroke="#1e40af" 
          stroke-width="0.5"/>
    
    <!-- Bag handles -->
    <path d="M6 8c0-1.5 1.2-2.7 2.7-2.7h6.6c1.5 0 2.7 1.2 2.7 2.7" 
          fill="none" 
          stroke="#1e40af" 
          stroke-width="1.5" 
          stroke-linecap="round"/>
    
    <!-- Gallery frame elements inside bag -->
    <rect x="8" y="11" width="3" height="2" fill="url(#iconAccentGradient)" rx="0.3"/>
    <rect x="12" y="11" width="3" height="2" fill="url(#iconAccentGradient)" rx="0.3"/>
    <rect x="16" y="11" width="3" height="2" fill="url(#iconAccentGradient)" rx="0.3"/>
    
    <rect x="8" y="14" width="3" height="2" fill="url(#iconAccentGradient)" rx="0.3"/>
    <rect x="12" y="14" width="3" height="2" fill="url(#iconAccentGradient)" rx="0.3"/>
    <rect x="16" y="14" width="3" height="2" fill="url(#iconAccentGradient)" rx="0.3"/>
    
    <!-- Decorative dots representing gallery items -->
    <circle cx="9.5" cy="18" r="0.8" fill="#fbbf24"/>
    <circle cx="12.5" cy="18" r="0.8" fill="#fbbf24"/>
    <circle cx="15.5" cy="18" r="0.8" fill="#fbbf24"/>
    <circle cx="18.5" cy="18" r="0.8" fill="#fbbf24"/>
  </g>
</svg> 